
<svg xmlns="http://www.w3.org/2000/svg" viewBox="0 0 264.88 59.62"><defs><style>.cls-1{fill:#e11f27;}.cls-2,.cls-4{font-size:18.42px;fill:#fff;}.cls-2{font-family:BellMTBold, Bell MT;letter-spacing:0.2em;}.cls-3{letter-spacing:0.19em;}.cls-4{font-family:BellMT, Bell MT;letter-spacing:0.24em;}.cls-5{letter-spacing:0.22em;}</style></defs><title>Asset 1</title><g id="Layer_2" data-name="Layer 2"><g id="Layer_1-2" data-name="Layer 1"><path class="cls-1" d="M96.65,31.1a14,14,0,0,0-5.33-8.29,15.64,15.64,0,0,0-5.53-2.69,18.27,18.27,0,0,0-5.78-.8c-1.38.07-2.76.21-4.15.32-.23,0-.46,0-.69,0a3.35,3.35,0,0,1-.71,0,1.14,1.14,0,0,1,.18-.46l7-13.92a9.57,9.57,0,0,0,.61-1.44,1.39,1.39,0,0,0,.07-.64.76.76,0,0,0-.53-.69.71.71,0,0,0-.84.33,6.89,6.89,0,0,0-.5.88c-.42.84-.83,1.68-1.23,2.53-.1.21-.19.27-.42.17-.61-.26-1.23-.49-1.84-.73L64.74.94c-.21-.08-.38-.17-.61.05a90,90,0,0,0-6.57,7c-.67.8-2.38,3-2.56,3.25a27.17,27.17,0,0,0-1.64,3c-.07.15-.14.29-.22.43a13.41,13.41,0,0,0-1.4,5.51.92.92,0,0,1-.62,1,9.31,9.31,0,0,0-2.95,1.95,9.42,9.42,0,0,0-2.66,8.39,8.71,8.71,0,0,0,5.09,6.92,13.18,13.18,0,0,0,3.3,1.09c.43.11.88.17,1.32.25a13.62,13.62,0,0,0,3.11.31c1.38-.08,2.76-.26,4.14-.37.46,0,.48,0,.29.38-.65,1.42-1.34,2.81-2,4.21-.28.57-.3.56-.93.45a22.15,22.15,0,0,0-7.44-.26,9.94,9.94,0,0,0-5,2.08,10.48,10.48,0,0,0-1.59,1.67c-.09.11-.17.32-.35.21-.38-.22-.59,0-.78.26-.72.85-1.55,1.59-2.27,2.43-.45.52-.48.5-1,.09a25.28,25.28,0,0,0-5.82-3.64,17.68,17.68,0,0,0-8.23-1.28A26.1,26.1,0,0,0,19.76,48c-.05,0-.09.08-.15.07s0,0,.06,0c1-1,2.06-2,3-3.1S24.45,43,25.3,42a41.3,41.3,0,0,0,3.62-4.9,16.13,16.13,0,0,0,2.15-6.06c0-.16,0-.31,0-.47.1-.77.24-1.55.28-2.33A59,59,0,0,0,31.27,21c-.07-1-.77-9-.79-10.61a14.93,14.93,0,0,1,.1-2.59A6.51,6.51,0,0,1,33,3.4a9,9,0,0,1,2.34-1.28,14.62,14.62,0,0,1,2.6-.7A11.66,11.66,0,0,0,37.17.11C37.09,0,37,0,36.84,0A28.07,28.07,0,0,0,33.3.35a10.4,10.4,0,0,0-6.51,3.81A13.12,13.12,0,0,0,24,11.67a42.66,42.66,0,0,0,.21,6.19c.12,1.47.28,2.94.4,4.42s.18,3,.24,4.56a33.84,33.84,0,0,1-.4,6.82,25.11,25.11,0,0,1-2.56,7.62,29.48,29.48,0,0,1-4.74,6.41,32.17,32.17,0,0,1-3.06,2.89.42.42,0,0,0-.27.2v0l0,0a.59.59,0,0,0,.17-.33c.08-.15.17-.3.26-.44,1-1.47,1.84-3,2.69-4.53a29.89,29.89,0,0,0,3.62-14.12c0-1.73-.1-3.45-.2-5.17-.07-1.2-.18-2.4-.28-3.59-.14-1.54-.27-3.07-.36-4.61-.06-1-.08-2-.12-2.95a20.94,20.94,0,0,1,.45-5.47,13.36,13.36,0,0,1,3.08-5.81,27.18,27.18,0,0,1,2.33-2.35L24.53,0l-.32.26a11.61,11.61,0,0,1-2,1.39,7.68,7.68,0,0,1-5.7.88,20.12,20.12,0,0,1-3.1-1A27.58,27.58,0,0,0,10.16.31,7,7,0,0,0,3.71,1.55,9.32,9.32,0,0,0,1.09,4.68a9.68,9.68,0,0,0-1,5.91A9.46,9.46,0,0,0,.4,12.2c.38-.16.75-.33,1.12-.46.22-.08.26-.2.19-.41A4.34,4.34,0,0,1,1.64,9,4,4,0,0,1,5.75,5.82a7,7,0,0,1,2.06.5c.9.32,1.81.61,2.73.84a10.24,10.24,0,0,0,4.89.12,24.54,24.54,0,0,0,2.94-.94c.07,0,0,.08,0,.13-.68.88-1.34,1.77-1.94,2.7a18.41,18.41,0,0,0-2.77,7.09,31.17,31.17,0,0,0-.24,7.6,6.7,6.7,0,0,1,0,1,7.27,7.27,0,0,0-3.51-.3,7.61,7.61,0,0,0-5.4,3.59c-.12.18-.07.27.07.38.32.24.63.5.94.75.36-.26.69-.53,1.06-.76a4.28,4.28,0,0,1,5,0,6.37,6.37,0,0,1,2.65,6.63c-.17,0-.28-.12-.41-.19a5.63,5.63,0,0,0-4.5-.52,6.1,6.1,0,0,0-2.42,1.58c-.43.41-.43.41,0,.84l.27.32c.34.38.34.39.82.16a3.5,3.5,0,0,1,4.07.55,5.73,5.73,0,0,1,1.74,2.57,8.32,8.32,0,0,1-.14,5.57,15.82,15.82,0,0,1-3.19,5.21,63.69,63.69,0,0,1-5.3,5.22c-.23.2-.65.35-.63.67s.3.55.47.83c0,0,0,0,0,0s.18.14.31.06A1.16,1.16,0,0,1,5.52,58,69.18,69.18,0,0,1,12,54.59a25.31,25.31,0,0,1,7.58-2.06,27.52,27.52,0,0,1,5.81,0,19.38,19.38,0,0,1,5.15,1.19,23.66,23.66,0,0,1,6.67,4.16c.43.36.43.37.82,0q3.13-3.16,6.28-6.34c.25,0,.14.18.11.3a7.19,7.19,0,0,0,.14,2A7.08,7.08,0,0,0,49,58.87a11.76,11.76,0,0,0,5.91.64,24.85,24.85,0,0,0,5-1.15,51,51,0,0,0,8-3.51.81.81,0,0,1,.74-.05c2.78,1,5.55,2.1,8.27,3.28a.64.64,0,0,0,.68,0,82.45,82.45,0,0,0,8.06-5.38,35.88,35.88,0,0,0,6.2-5.8,21.1,21.1,0,0,0,5-11.13A14.46,14.46,0,0,0,96.65,31.1ZM58,9.86a6.42,6.42,0,0,1,4.93-2.14,14.54,14.54,0,0,1,4.92.92,31.4,31.4,0,0,1,4.9,2.24c1,.55,2,1.14,3.07,1.7.21.11.24.21.13.43q-1.6,3.3-3.19,6.61a.5.5,0,0,1-.46.31l-2.2.21c-1.31.11-2.61.24-3.91.34-1,.07-2,.15-2.6.15a10.77,10.77,0,0,1-3.1-.24,5.33,5.33,0,0,1-4.17-4.49A6.71,6.71,0,0,1,58,9.86Zm.53,23a17,17,0,0,1-4.69-.74A6.56,6.56,0,0,1,51,30.41a5.24,5.24,0,0,1,1-7.84c.2.45.36.89.59,1.31a6.11,6.11,0,0,0,3.19,3,10,10,0,0,0,2.42.57,33.68,33.68,0,0,0,6.27,0c1.58-.12,3.15-.32,4.8-.58-.39.81-.75,1.54-1.1,2.28s-.86,1.74-1.25,2.63a.77.77,0,0,1-.72.51c-.82.09-1.65.21-2.47.29A38.87,38.87,0,0,1,58.54,32.81ZM64.2,54.68a34.38,34.38,0,0,1-7,2.68,15.64,15.64,0,0,1-4.2.51,9.07,9.07,0,0,1-3.33-.66,6.5,6.5,0,0,1-.93-.52,2.93,2.93,0,0,1-.3-4.71,5.83,5.83,0,0,1,3-1.32,14.09,14.09,0,0,1,4.1.13A45.67,45.67,0,0,1,65.79,53.7l.15.09Zm9.36-5.34c-2.12-.87-4.24-1.74-6.4-2.51-1.58-.57-3.19-1-4.81-1.44a.64.64,0,0,1-.29-.14c.67-1.4,1.34-2.78,2-4.17.25-.51.5-1,.74-1.54a.39.39,0,0,1,.39-.25c2.35-.06,4.69-.37,7-.63,1.59-.18,3.18-.43,4.77-.54a9.26,9.26,0,0,1,2.17,0,3.29,3.29,0,0,1,2.61,3.78,5.79,5.79,0,0,1-1.11,2.46,14.17,14.17,0,0,1-3.21,3,32.24,32.24,0,0,1-3.17,2A.73.73,0,0,1,73.56,49.34ZM90,45a22.18,22.18,0,0,1-4.75,5.56c-.63.55-1.28,1.06-2,1.56a.5.5,0,0,1-.5.1c-2-.65-4-1.27-6.07-1.9l-.23-.11,1.73-1a44.16,44.16,0,0,0,5.6-3.66,10.88,10.88,0,0,0,3.13-3.71,7.28,7.28,0,0,0-4.86-10.39,11.46,11.46,0,0,0-2.74-.31,48.1,48.1,0,0,0-4.94.27l-4.18.41L69,32l-.5,0c0-.19.06-.3.11-.41.72-1.49,1.45-3,2.15-4.45a.82.82,0,0,1,.74-.55,49,49,0,0,1,8.47-.6,12.93,12.93,0,0,1,8.42,3.29,10.78,10.78,0,0,1,3.29,6A13.66,13.66,0,0,1,90,45Z"/><text class="cls-2" transform="translate(111.69 26.6)">L<tspan class="cls-3" x="15.16" y="0">ONDONIUM</tspan></text><text class="cls-4" transform="translate(112.52 45.9)">SOLICI<tspan class="cls-5" x="86.35" y="0">T</tspan><tspan x="103.72" y="0">ORS</tspan></text></g></g></svg>