<svg width="7" height="10" viewBox="0 0 7 10" fill="none" xmlns="http://www.w3.org/2000/svg">
<path d="M3.29743 6.41666C4.00047 6.41666 4.56799 5.80249 4.56799 5.04166V2.29166C4.56799 1.53082 4.00047 0.916656 3.29743 0.916656C2.59438 0.916656 2.02686 1.53082 2.02686 2.29166V5.04166C2.02686 5.80249 2.59438 6.41666 3.29743 6.41666Z" fill="#88888C"/>
<path d="M5.41504 5.04166C5.41504 6.30666 4.46635 7.33332 3.29743 7.33332C2.1285 7.33332 1.17981 6.30666 1.17981 5.04166H0.332764C0.332764 6.65957 1.43816 7.98874 2.8739 8.21332V9.62499H3.72095V8.21332C5.15669 7.98874 6.26209 6.65957 6.26209 5.04166H5.41504V5.04166Z" fill="#88888C"/>
</svg>
