<svg width="10" height="10" viewBox="0 0 10 10" fill="none" xmlns="http://www.w3.org/2000/svg">
<path d="M9.30152 8.99624L7.20674 6.72929C7.71107 6.00272 7.98332 5.11833 7.9824 4.2096C7.9824 1.88844 6.23739 0 4.09252 0C1.94765 0 0.202637 1.88844 0.202637 4.2096C0.202637 6.53076 1.94765 8.4192 4.09252 8.4192C4.93223 8.42019 5.74945 8.12557 6.42084 7.57979L8.51562 9.84673C8.62165 9.94931 8.75995 10.0041 8.90213 9.99976C9.0443 9.99546 9.17955 9.93242 9.28012 9.82358C9.38069 9.71474 9.43895 9.56837 9.44293 9.41452C9.4469 9.26066 9.39631 9.11099 9.30152 8.99624ZM1.31403 4.2096C1.31403 3.6149 1.47699 3.03356 1.78229 2.53908C2.0876 2.0446 2.52154 1.65921 3.02924 1.43163C3.53694 1.20404 4.0956 1.1445 4.63458 1.26052C5.17355 1.37654 5.66863 1.66291 6.05721 2.08343C6.44579 2.50395 6.71041 3.03972 6.81762 3.62299C6.92483 4.20626 6.86981 4.81084 6.65951 5.36027C6.44921 5.90971 6.09309 6.37931 5.63617 6.70971C5.17925 7.04011 4.64205 7.21646 4.09252 7.21646C3.35589 7.2155 2.64968 6.8984 2.12881 6.33471C1.60793 5.77103 1.31492 5.00677 1.31403 4.2096Z" fill="#88888C"/>
</svg>
