<svg width="20" height="15" viewBox="0 0 20 15" fill="none" xmlns="http://www.w3.org/2000/svg">
<path d="M1.42857 0H8.57143C8.95031 0 9.31367 0.15051 9.58158 0.418419C9.84949 0.686328 10 1.04969 10 1.42857C10 1.80745 9.84949 2.17081 9.58158 2.43872C9.31367 2.70663 8.95031 2.85714 8.57143 2.85714H1.42857C1.04969 2.85714 0.686328 2.70663 0.418419 2.43872C0.15051 2.17081 0 1.80745 0 1.42857C0 1.04969 0.15051 0.686328 0.418419 0.418419C0.686328 0.15051 1.04969 0 1.42857 0V0ZM11.4286 11.4286H18.5714C18.9503 11.4286 19.3137 11.5791 19.5816 11.847C19.8495 12.1149 20 12.4783 20 12.8571C20 13.236 19.8495 13.5994 19.5816 13.8673C19.3137 14.1352 18.9503 14.2857 18.5714 14.2857H11.4286C11.0497 14.2857 10.6863 14.1352 10.4184 13.8673C10.1505 13.5994 10 13.236 10 12.8571C10 12.4783 10.1505 12.1149 10.4184 11.847C10.6863 11.5791 11.0497 11.4286 11.4286 11.4286ZM1.42857 5.71429H18.5714C18.9503 5.71429 19.3137 5.8648 19.5816 6.13271C19.8495 6.40061 20 6.76398 20 7.14286C20 7.52174 19.8495 7.8851 19.5816 8.15301C19.3137 8.42092 18.9503 8.57143 18.5714 8.57143H1.42857C1.04969 8.57143 0.686328 8.42092 0.418419 8.15301C0.15051 7.8851 0 7.52174 0 7.14286C0 6.76398 0.15051 6.40061 0.418419 6.13271C0.686328 5.8648 1.04969 5.71429 1.42857 5.71429Z" fill="#A9AEBA"/>
</svg>
