<svg width="20" height="22" viewBox="0 0 20 22" fill="none" xmlns="http://www.w3.org/2000/svg">
<path d="M8.85498 0.726886C9.49748 0.138666 10.5025 0.138666 11.145 0.726886L19.2175 8.11751C19.717 8.5748 20 9.21103 20 9.87663V18.8649C20 20.2018 18.8807 21.2857 17.5 21.2857H14.1667C12.7859 21.2857 11.6667 20.2018 11.6667 18.8649V14.8301C11.6667 14.3845 11.2936 14.0232 10.8333 14.0232H9.16667C8.70643 14.0232 8.33333 14.3845 8.33333 14.8301V18.8649C8.33333 20.2018 7.21405 21.2857 5.83333 21.2857H2.5C1.11928 21.2857 0 20.2018 0 18.8649V9.87663C0 9.21103 0.283 8.5748 0.782467 8.11751L8.85498 0.726886ZM10 1.89963L1.92748 9.29026C1.761 9.44268 1.66667 9.65476 1.66667 9.87663V18.8649C1.66667 19.3105 2.03977 19.6718 2.5 19.6718H5.83333C6.29357 19.6718 6.66667 19.3105 6.66667 18.8649V14.8301C6.66667 13.4931 7.78595 12.4093 9.16667 12.4093H10.8333C12.214 12.4093 13.3333 13.4931 13.3333 14.8301V18.8649C13.3333 19.3105 13.7065 19.6718 14.1667 19.6718H17.5C17.9602 19.6718 18.3333 19.3105 18.3333 18.8649V9.87663C18.3333 9.65476 18.239 9.44268 18.0725 9.29026L10 1.89963Z" fill="black"/>
</svg>
