<svg width="20" height="25" viewBox="0 0 20 25" fill="none" xmlns="http://www.w3.org/2000/svg">
<path d="M11.2122 6.34633C11.2122 7.01576 10.6695 7.55845 10.0001 7.55845C9.33063 7.55845 8.78796 7.01576 8.78796 6.34633C8.78796 5.6769 9.33063 5.13421 10.0001 5.13421C10.6695 5.13421 11.2122 5.6769 11.2122 6.34633Z" fill="#A9AEBA"/>
<path d="M9.09082 9.67966V15.7403C9.09082 16.2423 9.49785 16.6494 9.99991 16.6494C10.502 16.6494 10.909 16.2423 10.909 15.7403V9.67966C10.909 9.17759 10.502 8.77057 9.99991 8.77057C9.49785 8.77057 9.09082 9.17759 9.09082 9.67966Z" fill="#A9AEBA"/>
<path d="M0 3.31602C0 1.64244 1.35672 0.285721 3.0303 0.285721H16.9697C18.6433 0.285721 20 1.64244 20 3.31602V20.5888C20 21.0908 19.593 21.4978 19.0909 21.4978H1.81818C1.81818 22.1673 2.36087 22.71 3.0303 22.71H19.0909C19.593 22.71 20 23.117 20 23.6191C20 24.1211 19.593 24.5281 19.0909 24.5281H3.0303C1.35672 24.5281 0 23.1714 0 21.4978V3.31602ZM18.1818 19.6797V3.31602C18.1818 2.64659 17.6392 2.1039 16.9697 2.1039H3.0303C2.36087 2.1039 1.81818 2.64659 1.81818 3.31602V19.6797H18.1818Z" fill="#A9AEBA"/>
</svg>
